<svg width="163" height="163" viewBox="0 0 163 163" fill="none" xmlns="http://www.w3.org/2000/svg">
<path d="M90.9406 65.5344C91.9995 65.5334 93.0443 65.4107 94.0179 64.9785C96.4005 63.9205 98.6645 64.371 100.876 65.4863C101.076 65.5873 101.198 65.8428 101.356 66.027C101.178 66.1431 101.015 66.3126 100.819 66.3659C99.1791 66.8099 97.5153 66.841 95.845 66.5762C95.3245 66.4939 94.786 66.4143 94.3061 66.2124C93.2174 65.756 92.1528 65.8992 91.0825 66.2131C90.6187 66.3487 90.1695 66.533 89.7124 66.6932C89.0568 66.9231 88.5607 67.3214 88.3105 67.9921C88.2498 68.1548 88.1555 68.3114 88.0505 68.4508C87.3235 69.4269 87.2685 70.4422 87.9019 71.5887C88.7617 70.611 89.6036 69.6609 90.4357 68.7015C90.7814 68.3029 91.0964 67.8771 91.443 67.4787C91.6343 67.2587 91.8541 66.8825 92.1683 67.1133C92.3536 67.2496 92.4234 67.6605 92.4025 67.9376C92.3216 69.0212 91.9029 70.0009 91.2203 70.829C90.3815 71.8457 89.4703 72.8019 88.5854 73.7805C88.3838 74.0036 88.1317 74.1664 88.1887 74.5472C88.6188 77.4327 88.4523 80.3421 88.5224 83.2426C88.5289 83.5061 88.5148 83.7717 88.5439 84.0328C88.5569 84.1514 88.6534 84.2601 88.7117 84.3728C88.8011 84.3092 88.9234 84.2649 88.9753 84.1779C89.3613 83.5368 89.7971 82.9158 90.0894 82.2335C90.3617 81.5972 90.5856 80.9004 90.6386 80.2159C90.8123 77.951 91.3848 75.7968 92.1971 73.6887C92.4973 72.9095 92.6979 72.0932 92.9638 71.3C93.0599 71.0125 93.1937 70.7333 93.3473 70.4727C93.4598 70.2801 93.8272 70.309 93.8944 70.5165C94.0159 70.8908 94.1292 71.2743 94.1802 71.6631C94.4445 73.6969 93.9432 75.596 93.1072 77.4264C92.5972 78.5444 92.0687 79.6537 91.5483 80.768L91.5275 80.732C92.3555 80.4379 92.8453 79.7362 93.3904 79.1263C95.2087 77.0908 96.9851 75.0193 98.7895 72.9714C99.4007 72.2784 100.014 71.5832 100.684 70.9467C101.416 70.25 102.207 69.6146 102.988 68.972C103.093 68.8859 103.294 68.9158 103.45 68.8919C103.473 69.0513 103.564 69.2433 103.507 69.3662C102.564 71.4019 101.639 73.4483 100.63 75.4524C99.9046 76.8963 98.716 77.9639 97.4341 78.918C96.0452 79.9519 94.5267 80.7798 92.884 81.2935C91.2899 81.7927 90.2472 82.767 89.5565 84.2508C89.0339 85.3731 88.6026 86.4998 88.3256 87.7184C87.6635 90.6369 86.9474 93.5475 85.7892 96.3244C85.5691 96.8509 85.4195 97.4058 85.2492 97.9524C85.2294 98.0156 85.2851 98.1028 85.3054 98.1797C85.3817 98.1544 85.4803 98.1523 85.5311 98.1012C86.3066 97.3246 87.0783 96.5442 87.8472 95.7602C88.4704 95.1256 88.9374 94.3987 89.2985 93.5768C90.8695 89.9984 92.8739 86.7104 95.7904 84.04C96.4059 83.4767 96.9441 82.8288 97.5265 82.229C97.7712 81.9766 98.0208 81.7236 98.3007 81.514C98.4164 81.4269 98.6616 81.3822 98.7658 81.4482C98.8739 81.5172 98.9372 81.7464 98.926 81.8986C98.8957 82.2922 98.8331 82.6857 98.7485 83.0724C98.1327 85.8824 96.7925 88.3402 95.0341 90.5822C93.8529 92.0878 92.4838 93.3783 90.6903 94.1525C90.3308 94.3075 90.0091 94.5526 89.678 94.7685C89.6259 94.8031 89.6155 94.9022 89.5865 94.9715C89.6645 94.9895 89.757 95.0457 89.8178 95.0211C91.1118 94.5015 92.4166 94.716 93.723 94.946C95.2004 95.2058 96.6641 95.5199 98.0355 96.1539C98.5131 96.3752 99.1757 96.6099 99.1342 97.1661C99.0879 97.783 98.3441 97.7379 97.8597 97.8547C96.4854 98.1871 95.1653 98.0761 93.8961 97.3733C93.0123 96.8843 92.0761 96.4877 91.165 96.0475C90.3187 95.6389 89.5211 95.6204 88.6647 96.1201C87.7393 96.6604 86.8602 97.2302 86.2459 98.1195C84.7973 100.218 83.3554 102.32 81.9432 104.442C81.4796 105.139 81.2629 105.93 81.1221 106.779C80.8176 108.601 80.4321 110.416 79.9611 112.202C79.4758 114.042 79.2529 115.915 78.9992 117.789C78.9228 118.355 78.8209 118.923 78.6594 119.469C78.4196 120.275 77.9102 120.563 77.3071 120.309C76.6666 120.039 76.4908 119.522 76.8242 118.786C77.2242 117.904 77.7076 117.056 78.0493 116.154C78.5479 114.84 79.0215 113.51 79.3802 112.153C79.8295 110.451 80.2292 108.729 80.5107 106.993C80.8689 104.778 81.095 102.542 81.358 100.313C81.3927 100.017 81.3595 99.6928 81.2745 99.4063C80.7337 97.5945 80.2442 95.7621 79.5865 93.9922C79.1744 92.8832 78.2992 92.1384 77.0488 91.9376C75.8322 91.742 74.6199 91.5162 73.4104 91.2835C71.0367 90.8265 69.8203 89.2306 69.2513 87.0123C69.2087 86.8448 69.1433 86.634 69.2075 86.5008C69.2833 86.3459 69.4873 86.1636 69.64 86.1588C69.8366 86.1534 70.049 86.295 70.2356 86.405C71.7154 87.2775 73.1939 88.162 74.4501 89.3468C75.4941 90.332 76.7105 91.0149 78.012 91.5721C78.1265 91.6209 78.2633 91.6185 78.3901 91.6392C78.3875 91.5138 78.4177 91.3762 78.3756 91.2669C78.264 90.9799 78.1203 90.7063 77.9894 90.4275C77.558 89.5113 77.1022 88.6047 76.7029 87.6752C76.3569 86.8704 75.8131 86.2706 75.0576 85.8502C74.481 85.5291 73.8995 85.2162 73.3192 84.9017C72.1104 84.2475 71.0262 83.4334 70.0588 82.4535C68.4943 80.8701 67.5328 78.9731 67.0793 76.8105C67.0333 76.5916 67.1045 76.308 67.2217 76.1157C67.2637 76.0479 67.6431 76.1029 67.8035 76.204C69.7827 77.4473 71.7389 78.7235 73.1684 80.6326C73.8024 81.4784 74.4257 82.3318 75.0469 83.1865C75.8023 84.2257 76.411 85.3398 76.8235 86.5642C77.0196 87.147 77.2659 87.7166 77.5322 88.2716C78.9587 91.2508 80.4392 94.2064 81.3434 97.4046C81.3741 97.5138 81.5026 97.5958 81.5857 97.6904C81.6329 97.5784 81.7197 97.4674 81.7223 97.3548C81.7512 95.9041 81.7832 94.4523 81.777 93.0008C81.7758 92.6606 81.657 92.3156 81.5575 91.9833C80.9531 89.9612 80.0873 88.0195 79.7128 85.9247C79.6464 85.5509 79.3932 85.2098 79.2193 84.8567C78.7912 83.9889 78.3198 83.1401 77.9397 82.2528C77.4033 81.0039 77.3001 79.691 77.6341 78.3697C77.8712 77.4317 78.0911 76.4758 78.4649 75.5888C79.25 73.7248 80.1259 71.8984 80.9767 70.0625C81.085 69.8288 81.2492 69.6138 81.4183 69.4164C81.5726 69.2349 81.8677 69.3378 81.9138 69.5853C81.9532 69.8005 81.9822 70.0225 81.9726 70.2398C81.8464 73.141 81.7219 76.0426 81.5759 78.9432C81.5183 80.0854 81.3985 81.2252 81.3287 82.367C81.2712 83.3026 81.0876 84.2082 80.6541 85.0374C80.3021 85.7113 80.2785 86.3714 80.4986 87.0777C80.8373 88.1623 81.1351 89.2608 81.7339 90.5255C81.7854 90.0348 81.8315 89.792 81.8335 89.5498C81.85 87.3779 82.2606 85.2594 82.7001 83.1466C83.0671 81.3791 83.4874 79.622 83.8393 77.8504C84.2891 75.5891 85.1042 73.4532 85.9818 71.336C86.1332 70.9701 86.275 70.6006 86.429 70.2354C86.5933 69.8463 86.5531 69.4775 86.402 69.0858C85.9903 68.0178 85.5597 66.9533 85.2272 65.8598C84.9738 65.0256 84.3968 64.6635 83.6372 64.4713C82.9125 64.2876 82.1785 64.1385 81.4549 63.9504C80.1351 63.6072 79.0354 62.8899 78.166 61.8534C77.177 60.6736 76.2298 59.4583 75.2738 58.2511C75.1998 58.1579 75.1316 57.9578 75.1786 57.8924C75.2679 57.7687 75.4421 57.6336 75.5816 57.6319C76.9969 57.6151 78.2548 58.115 79.4085 58.8934C80.8913 59.8934 81.9905 61.2731 83.0754 62.6634C83.3992 63.0786 83.7382 63.4836 84.0916 63.8734C84.1512 63.9389 84.3177 63.9073 84.4343 63.9195C84.4402 63.8373 84.4703 63.7464 84.4469 63.6735C84.3284 63.2952 84.1856 62.9257 84.0711 62.5465C83.7762 61.5793 83.4372 60.6203 83.2214 59.6352C83.0424 58.8181 82.6918 58.1548 82.0504 57.6317C81.8801 57.4927 81.7359 57.3237 81.574 57.1747C80.1694 55.8901 79.6693 54.25 79.7433 52.4069C79.7675 51.7945 79.8793 51.1819 79.993 50.5764C80.4012 48.4134 80.8276 46.2534 81.2494 44.0931C81.2916 43.8788 81.3299 43.6577 81.4195 43.4618C81.4656 43.3609 81.6196 43.2479 81.722 43.2496C81.8196 43.2511 81.9709 43.3792 82.0036 43.4812C82.9207 46.3649 84.5376 49.0172 84.7781 52.1271C84.9125 53.8605 84.8961 55.563 84.2956 57.2108C83.6946 58.8605 83.7504 60.4462 84.421 62.0862C85.1372 63.8366 85.6879 65.6539 86.3166 67.4398C86.4479 67.8129 86.5925 68.1829 86.7503 68.546C86.7993 68.6582 86.9489 68.8353 86.992 68.8202C87.1401 68.7647 87.2638 68.6408 87.3918 68.5361C87.4225 68.5101 87.4317 68.4582 87.4542 68.4205C88.7059 66.3178 89.556 64.0724 89.9797 61.6527C90.2331 60.206 90.2579 58.8132 90.0047 57.3421C89.4607 54.171 89.853 51.1079 91.7319 48.3698C91.8506 48.1969 92.0072 48.039 92.177 47.9169C92.2287 47.8803 92.4558 47.9669 92.4787 48.0378C92.5316 48.1957 92.5174 48.3804 92.5109 48.5538C92.4618 49.9163 92.3785 51.2791 92.3609 52.6414C92.3336 54.7827 91.9601 56.8408 91.0226 58.7801C90.9655 58.8971 90.8904 59.0141 90.8714 59.1385C90.6298 60.7007 90.3977 62.2635 90.1401 63.9709C90.3727 63.721 90.5521 63.5558 90.6974 63.3653C90.9652 63.0163 91.1944 62.6369 91.472 62.2972C93.3128 60.0459 95.0337 57.7234 96.2603 55.0571C96.6412 54.2291 97.2252 53.4812 97.7889 52.7526C98.6644 51.6201 99.8023 50.7912 101.08 50.1529C103.325 49.0295 105.569 47.9049 107.815 46.7837C108.011 46.6857 108.211 46.5842 108.422 46.5302C108.528 46.5026 108.71 46.5389 108.769 46.6146C108.832 46.6962 108.807 46.8599 108.788 46.9834C108.776 47.0648 108.712 47.14 108.664 47.214C106.049 51.2759 102.865 54.7402 98.4705 56.9412C97.3334 57.5114 96.2191 58.1277 95.104 58.7399C94.9176 58.8423 94.7502 59.0088 94.6193 59.1812C93.2861 60.9307 91.9602 62.6851 90.6435 64.4476C90.5577 64.5617 90.5671 64.7469 90.532 64.8994C90.6917 64.8432 90.8746 64.8179 91.0065 64.7238C91.5061 64.3655 92.0157 64.0127 92.4736 63.6042C93.1955 62.9599 93.8928 62.2871 94.5764 61.6011C95.7251 60.4476 97.0983 59.6998 98.653 59.2587C99.331 59.0662 100 58.8428 100.681 58.6624C100.994 58.5798 101.402 58.2885 101.61 58.7162C101.695 58.8923 101.487 59.2773 101.32 59.4962C100.293 60.8396 99.0736 61.9988 97.5875 62.802C96.5097 63.3852 95.3381 63.7996 94.1951 64.2568C93.8742 64.385 93.4979 64.4889 93.1649 64.4492C92.1558 64.3282 91.5332 64.8792 90.9671 65.5776L90.9406 65.5344ZM100.516 59.3246C100.05 59.4358 99.5662 59.4995 99.1228 59.6692C98.1478 60.0429 97.108 60.3421 96.2509 60.9083C95.2388 61.5768 94.3876 62.4901 93.4807 63.3133C93.3763 63.4082 93.3616 63.6013 93.3058 63.7491C93.4682 63.7755 93.6464 63.8604 93.7911 63.8211C96.3406 63.1315 98.5821 61.9214 100.303 59.8672C100.428 59.717 100.449 59.48 100.519 59.2836L100.524 59.3774L100.516 59.3246ZM92.9451 80.6073C94.2826 80.4012 95.3768 79.6538 96.4783 78.957C98.3731 77.7588 99.8325 76.1564 100.738 74.078C101.106 73.2341 101.516 72.4093 101.878 71.5628C102.029 71.2109 102.102 70.8261 102.211 70.4563C101.902 70.6592 101.563 70.8273 101.293 71.0727C100.872 71.454 100.482 71.8741 100.104 72.3003C97.7772 74.9231 95.455 77.55 93.1398 80.1825C93.0372 80.2988 93.018 80.4879 92.9592 80.6434C92.9222 80.6535 92.885 80.6645 92.848 80.6746C92.881 80.6511 92.9126 80.6291 92.9451 80.6073ZM81.5745 103.832C82.7491 102.391 83.5272 101.086 84.0343 99.6193C84.2929 98.8709 84.5214 98.1105 84.823 97.3793C86.018 94.4827 86.8411 91.4713 87.5978 88.4411C87.8095 87.5944 87.9827 86.7098 87.9837 85.8428C87.9846 82.6348 87.9105 79.4259 87.8514 76.218C87.8439 75.8266 87.7763 75.4325 87.7007 75.0467C87.6608 74.8437 87.4845 74.7736 87.3015 74.895C86.6787 75.3078 86.0916 75.7865 85.436 76.1372C84.8217 76.4648 84.5659 76.9399 84.4458 77.5836C84.2187 78.7936 83.9775 80.0028 83.6893 81.1993C82.8196 84.8037 82.2067 88.4379 82.3737 92.163C82.3988 92.7304 82.0701 93.3602 82.6017 93.8634C82.8884 93.3367 83.2478 92.8342 83.4405 92.2746C83.6077 91.793 83.6186 91.2476 83.6399 90.7278C83.6758 89.8511 83.5351 88.948 83.6983 88.1007C84.0806 86.1164 84.5913 84.157 85.0745 82.194C85.1159 82.0252 85.3406 81.9007 85.4795 81.7551C85.6213 81.9083 85.8254 82.0382 85.8924 82.218C86.0446 82.6272 86.1801 83.0557 86.234 83.4871C86.5043 85.6653 86.328 87.7763 85.3191 89.7831C84.4705 91.472 83.6715 93.1857 82.8963 94.9096C82.6296 95.5035 82.4189 96.1477 82.3269 96.7895C82.0719 98.5728 81.8876 100.365 81.6866 102.157C81.6367 102.616 81.6244 103.081 81.5745 103.832ZM84.0433 56.3759C84.1332 55.4614 84.2806 54.5489 84.3025 53.6323C84.3727 50.599 83.2609 47.8698 82.0301 45.18C82.0006 45.1159 81.8584 45.0321 81.8329 45.0491C81.7426 45.1125 81.6317 45.2065 81.6129 45.3052C81.1748 47.5478 80.6768 49.7829 80.3393 52.041C80.0583 53.9211 80.5752 55.5838 82.0516 56.9237C83.4667 58.2082 83.4287 58.2504 84.0433 56.3759ZM95.6212 57.3962C95.618 57.4792 95.6125 57.6062 95.607 57.7333C95.7616 57.7318 95.9487 57.7867 96.0672 57.7214C97.2956 57.0376 98.5224 56.3496 99.7327 55.6343C102.859 53.7856 105.292 51.2246 107.282 48.2163C107.369 48.0844 107.37 47.8961 107.41 47.7338C107.253 47.7525 107.075 47.7306 106.941 47.7966C104.894 48.8132 102.847 49.8287 100.815 50.872C99.8255 51.38 98.9973 52.1082 98.2939 52.9641C97.199 54.2967 96.3991 55.8111 95.6212 57.3962ZM78.4364 77.3899C78.3795 77.6022 78.3269 77.8166 78.2647 78.0274C77.5523 80.4374 78.3777 82.5263 79.6291 84.521C79.8579 84.8859 80.1438 84.8597 80.2799 84.4478C80.4714 83.868 80.6573 83.2704 80.7198 82.6674C80.905 80.875 81.0611 79.0775 81.168 77.2784C81.2794 75.3919 81.3244 73.5009 81.3849 71.6122C81.3902 71.4575 81.2921 71.2979 81.2427 71.141C81.1248 71.2331 80.9554 71.3001 80.8954 71.4211C79.943 73.3554 79.0546 75.3174 78.4364 77.3899ZM97.9546 83.964C98.0111 83.6964 98.0969 83.3548 98.1471 83.0074C98.1633 82.8975 98.083 82.7742 98.048 82.6562C97.934 82.7123 97.796 82.7439 97.7105 82.8286C97.1506 83.3868 96.6265 83.9823 96.0453 84.5167C93.545 86.817 91.8037 89.649 90.3016 92.6508C90.1846 92.8851 90.0907 93.136 90.0213 93.3877C89.9945 93.4843 90.0482 93.6215 90.1059 93.7151C90.1285 93.7516 90.2723 93.7444 90.3448 93.7153C91.3773 93.3046 92.2983 92.7203 93.0917 91.9371C95.3552 89.7038 96.9426 87.0552 97.9546 83.964ZM68.0357 77.0002C67.9513 77.0061 67.7998 76.996 67.7943 77.0202C67.7659 77.1402 67.7498 77.2748 67.777 77.3935C68.2642 79.5299 69.4397 81.2395 71.0543 82.6784C72.1801 83.6816 73.4851 84.4035 74.8234 85.0687C75.0696 85.1908 75.3569 85.2307 75.6246 85.3081C75.5144 85.0301 75.4506 84.7208 75.2859 84.4796C74.5668 83.4291 73.8093 82.4046 73.081 81.3603C71.8208 79.5547 70.0546 78.3265 68.2679 77.1214C68.1951 77.0733 68.1129 77.0389 68.0357 77.0002ZM81.4056 63.3526C81.8577 63.4738 82.0671 63.5594 82.2818 63.5789C82.4742 63.5961 82.6725 63.5417 82.8681 63.5189C82.8179 63.3617 82.8054 63.1775 82.7122 63.0525C81.77 61.7833 80.7788 60.5439 79.4805 59.6267C78.8112 59.1542 78.0311 58.829 77.2791 58.4876C77.0219 58.371 76.5144 58.2789 76.434 58.3944C76.1867 58.7489 76.6288 58.9711 76.8059 59.2233C77.31 59.9391 77.8283 60.6482 78.39 61.3194C79.2533 62.3504 80.3078 63.1118 81.4056 63.3526ZM73.5276 90.7466C73.5862 90.7623 73.6693 90.7969 73.7546 90.8055C74.218 90.8488 74.6822 90.8856 75.1458 90.925C75.1798 90.3182 74.575 90.2447 74.2812 89.9166C73.9649 89.5624 73.5781 89.2579 73.1838 88.9885C72.2477 88.3502 71.2909 87.7426 70.334 87.1358C70.2413 87.0767 70.0487 87.067 69.9712 87.1252C69.9066 87.1746 69.9054 87.3675 69.9385 87.4782C70.4754 89.2728 71.6587 90.3705 73.5276 90.7466ZM91.3985 56.0982C91.9317 54.1191 91.7922 52.0958 91.818 50.0846C91.8189 50.042 91.811 49.997 91.7967 49.9579C91.7817 49.9178 91.7481 49.8478 91.7314 49.85C91.6542 49.8608 91.5432 49.87 91.5125 49.9208C91.3553 50.1805 91.183 50.4399 91.0834 50.7226C90.3893 52.6986 90.1994 54.7325 90.4379 56.809C90.4631 57.0242 90.511 57.2398 90.5724 57.4476C90.5916 57.5108 90.6878 57.5851 90.754 57.5905C90.8128 57.5948 90.9161 57.5254 90.9367 57.4662C91.0998 57.0139 91.2465 56.5553 91.3985 56.0982ZM91.1861 95.3116C92.6598 96.2634 94.0312 96.9221 95.476 97.3854C96.3193 97.6561 97.2158 97.4794 98.0715 97.2488C98.1372 97.2312 98.2093 97.1325 98.2219 97.0607C98.2339 96.9944 98.1921 96.8804 98.1374 96.8467C97.9526 96.7334 97.7576 96.6297 97.5551 96.5507C95.9096 95.9127 94.191 95.5693 92.4551 95.3079C92.1165 95.2572 91.7643 95.3066 91.1861 95.3116ZM91.6764 68.9064C91.6686 68.7615 91.6595 68.6001 91.6504 68.4387C91.5012 68.5015 91.305 68.5232 91.2111 68.6322C89.5267 70.598 87.8541 72.5736 86.186 74.5532C86.1123 74.6401 86.1076 74.7854 86.0712 74.9033C86.2176 74.8758 86.3977 74.8927 86.5066 74.8133C88.2586 73.533 89.7515 71.9939 90.9959 70.2206C91.269 69.8301 91.4407 69.3668 91.6764 68.9064ZM84.8057 85.3463C84.419 86.7859 84.1071 88.2379 84.1474 89.7395C84.1504 89.8669 84.2866 89.991 84.3606 90.1165C84.4578 90.0378 84.59 89.978 84.6477 89.8764C85.7368 87.9291 85.9533 85.828 85.7146 83.6526C85.7022 83.5426 85.5874 83.4452 85.52 83.3415C85.4404 83.4182 85.3167 83.4822 85.289 83.5747C85.1154 84.1622 84.964 84.7557 84.8057 85.3463ZM91.7735 76.634C91.6755 77.0885 91.529 77.6423 91.4437 78.2058C91.4007 78.4942 91.4694 78.7992 91.4867 79.097C91.6547 78.8859 91.8593 78.6942 91.9839 78.4601C92.6861 77.1365 93.3145 75.775 93.5377 74.2812C93.6464 73.5525 93.6112 72.8025 93.628 72.0615C93.6294 71.9991 93.5317 71.9339 93.4793 71.8703C93.4241 71.9269 93.3421 71.9735 93.3194 72.0407C92.8111 73.5362 92.3097 75.0345 91.7735 76.634ZM95.2435 65.9257C96.6406 66.1582 98.0776 66.2986 99.5254 66.0754C99.6703 66.0533 99.7979 65.9218 99.9328 65.8409C99.8449 65.7497 99.7733 65.6192 99.6659 65.5723C98.1745 64.9242 96.6434 64.6768 95.0522 65.1757C94.8881 65.2269 94.7184 65.2919 94.5828 65.3927C94.5354 65.4276 94.5467 65.659 94.5933 65.6839C94.7852 65.7848 94.9998 65.8404 95.2435 65.9257ZM85.5878 73.7941C85.6064 73.8953 85.6271 74.0065 85.6477 74.1177C85.7556 74.0666 85.8892 74.0405 85.966 73.9602C86.2339 73.6779 86.4602 73.352 86.7433 73.088C87.3526 72.5192 87.2128 71.8439 87.063 71.163C87.0478 71.0952 86.9542 71.0111 86.8853 70.9983C86.8335 70.9892 86.7337 71.0701 86.7064 71.1332C86.3336 72.0091 85.9675 72.8887 85.5878 73.7941ZM78.5099 117.295C78.4165 117.263 78.3234 117.231 78.2291 117.199C77.9161 117.855 77.5835 118.503 77.3075 119.175C77.2521 119.31 77.3597 119.623 77.4871 119.702C77.7531 119.867 78.0162 119.702 78.0833 119.423C78.2517 118.72 78.371 118.005 78.5099 117.295Z" fill="#44240A"/>
<path d="M104.929 133.538C104.65 133.538 104.425 133.313 104.425 133.034C104.425 132.755 104.651 132.53 104.929 132.53H105.94C106.219 132.53 106.475 132.755 106.475 133.034C106.475 133.312 106.281 133.538 106.002 133.538V133.034L105.952 133.539L104.929 133.538ZM101.896 133.538H100.885C100.606 133.538 100.381 133.313 100.381 133.034C100.381 132.755 100.606 132.53 100.885 132.53H101.896C102.175 132.53 102.4 132.755 102.4 133.034C102.4 133.313 102.175 133.538 101.896 133.538ZM97.8518 133.538H96.8408C96.5618 133.538 96.3368 133.313 96.3368 133.034C96.3368 132.755 96.5618 132.53 96.8408 132.53H97.8518C98.1308 132.53 98.3558 132.755 98.3558 133.034C98.3558 133.313 98.1308 133.538 97.8518 133.538ZM93.8078 133.538H92.7968C92.5178 133.538 92.2928 133.313 92.2928 133.034C92.2928 132.755 92.5178 132.53 92.7968 132.53H93.8078C94.0868 132.53 94.3118 132.755 94.3118 133.034C94.3118 133.313 94.0868 133.538 93.8078 133.538ZM89.7638 133.538H88.7528C88.4738 133.538 88.2488 133.313 88.2488 133.034C88.2488 132.755 88.4738 132.53 88.7528 132.53H89.7638C90.0428 132.53 90.2678 132.755 90.2678 133.034C90.2678 133.313 90.0428 133.538 89.7638 133.538ZM85.7198 133.538H84.7088C84.4298 133.538 84.2048 133.313 84.2048 133.034C84.2048 132.755 84.4308 132.53 84.7088 132.53H85.7198C85.9988 132.53 86.2238 132.755 86.2238 133.034C86.2238 133.313 85.9988 133.538 85.7198 133.538ZM81.6758 133.538H80.6648C80.3858 133.538 80.1608 133.313 80.1608 133.034C80.1608 132.755 80.3858 132.53 80.6648 132.53H81.6758C81.9548 132.53 82.1798 132.755 82.1798 133.034C82.1798 133.313 81.9538 133.538 81.6758 133.538ZM77.6318 133.538H76.6208C76.3418 133.538 76.1168 133.313 76.1168 133.034C76.1168 132.755 76.3418 132.53 76.6208 132.53H77.6318C77.9108 132.53 78.1358 132.755 78.1358 133.034C78.1358 133.313 77.9108 133.538 77.6318 133.538ZM73.5878 133.538H72.5768C72.2978 133.538 72.0728 133.313 72.0728 133.034C72.0728 132.755 72.2978 132.53 72.5768 132.53H73.5878C73.8668 132.53 74.0918 132.755 74.0918 133.034C74.0918 133.313 73.8658 133.538 73.5878 133.538ZM69.5438 133.538H68.5328C68.2538 133.538 68.0288 133.313 68.0288 133.034C68.0288 132.755 68.2548 132.53 68.5328 132.53H69.5438C69.8228 132.53 70.0478 132.755 70.0478 133.034C70.0478 133.313 69.8218 133.538 69.5438 133.538ZM65.4998 133.538H64.4888C64.2098 133.538 63.9848 133.313 63.9848 133.034C63.9848 132.755 64.2098 132.53 64.4888 132.53H65.4998C65.7788 132.53 66.0038 132.755 66.0038 133.034C66.0038 133.313 65.7778 133.538 65.4998 133.538ZM61.4728 133.323C61.4348 133.323 61.3958 133.319 61.3568 133.31C61.0048 133.227 60.6618 133.123 60.3288 132.999C60.0678 132.902 59.9348 132.612 60.0318 132.351C60.1298 132.09 60.4208 131.957 60.6798 132.054C60.9738 132.163 61.2768 132.255 61.5868 132.328C61.8578 132.392 62.0258 132.663 61.9628 132.934C61.9088 133.167 61.7018 133.323 61.4728 133.323ZM57.9258 131.471C57.8058 131.471 57.6858 131.429 57.5898 131.343C57.3228 131.104 57.0718 130.849 56.8368 130.579C56.6538 130.369 56.6758 130.051 56.8858 129.868C57.0948 129.685 57.4128 129.706 57.5968 129.917C57.8048 130.155 58.0268 130.381 58.2628 130.592C58.4708 130.778 58.4878 131.097 58.3018 131.304C58.2008 131.414 58.0638 131.471 57.9258 131.471ZM55.6898 128.152C55.4828 128.152 55.2888 128.023 55.2148 127.818C55.0948 127.483 54.9948 127.136 54.9178 126.786C54.8578 126.514 55.0298 126.245 55.3008 126.185C55.5718 126.125 55.8408 126.296 55.9018 126.568C55.9708 126.879 56.0578 127.182 56.1638 127.478C56.2578 127.74 56.1208 128.029 55.8588 128.122C55.8038 128.142 55.7468 128.152 55.6898 128.152ZM55.2188 124.163C54.9398 124.163 54.7148 123.938 54.7148 123.659V122.648C54.7148 122.369 54.9398 122.144 55.2188 122.144C55.4978 122.144 55.7228 122.369 55.7228 122.648V123.659C55.7228 123.937 55.4978 124.163 55.2188 124.163ZM55.2188 120.119C54.9398 120.119 54.7148 119.894 54.7148 119.615V118.604C54.7148 118.325 54.9398 118.1 55.2188 118.1C55.4978 118.1 55.7228 118.325 55.7228 118.604V119.615C55.7228 119.893 55.4978 120.119 55.2188 120.119ZM55.2188 116.075C54.9398 116.075 54.7148 115.85 54.7148 115.571V114.56C54.7148 114.281 54.9398 114.056 55.2188 114.056C55.4978 114.056 55.7228 114.282 55.7228 114.56V115.571C55.7228 115.849 55.4978 116.075 55.2188 116.075ZM55.2188 112.031C54.9398 112.031 54.7148 111.806 54.7148 111.527V110.516C54.7148 110.237 54.9398 110.012 55.2188 110.012C55.4978 110.012 55.7228 110.238 55.7228 110.516V111.527C55.7228 111.805 55.4978 112.031 55.2188 112.031ZM55.2188 107.987C54.9398 107.987 54.7148 107.762 54.7148 107.483V106.472C54.7148 106.193 54.9398 105.968 55.2188 105.968C55.4978 105.968 55.7228 106.193 55.7228 106.472V107.483C55.7228 107.761 55.4978 107.987 55.2188 107.987ZM55.2188 103.943C54.9398 103.943 54.7148 103.718 54.7148 103.439V102.428C54.7148 102.149 54.9398 101.924 55.2188 101.924C55.4978 101.924 55.7228 102.15 55.7228 102.428V103.439C55.7228 103.717 55.4978 103.943 55.2188 103.943ZM55.2188 99.8987C54.9398 99.8987 54.7148 99.6737 54.7148 99.3947V98.3837C54.7148 98.1047 54.9398 97.8797 55.2188 97.8797C55.4978 97.8797 55.7228 98.1047 55.7228 98.3837V99.3947C55.7228 99.6727 55.4978 99.8987 55.2188 99.8987ZM55.2188 95.8547C54.9398 95.8547 54.7148 95.6287 54.7148 95.3507V94.3397C54.7148 94.0607 54.9398 93.8357 55.2188 93.8357C55.4978 93.8357 55.7228 94.0607 55.7228 94.3397V95.3507C55.7228 95.6287 55.4978 95.8547 55.2188 95.8547ZM55.2188 91.8107C54.9398 91.8107 54.7148 91.5857 54.7148 91.3067V90.2957C54.7148 90.0167 54.9398 89.7917 55.2188 89.7917C55.4978 89.7917 55.7228 90.0177 55.7228 90.2957V91.3067C55.7228 91.5847 55.4978 91.8107 55.2188 91.8107ZM55.2188 87.7667C54.9398 87.7667 54.7148 87.5417 54.7148 87.2627V86.2517C54.7148 85.9727 54.9398 85.7477 55.2188 85.7477C55.4978 85.7477 55.7228 85.9737 55.7228 86.2517V87.2627C55.7228 87.5407 55.4978 87.7667 55.2188 87.7667ZM55.2188 83.7227C54.9398 83.7227 54.7148 83.4967 54.7148 83.2187V82.2077C54.7148 81.9287 54.9398 81.7037 55.2188 81.7037C55.4978 81.7037 55.7228 81.9287 55.7228 82.2077V83.2187C55.7228 83.4967 55.4978 83.7227 55.2188 83.7227ZM114.059 82.5107C113.78 82.5107 113.555 82.2847 113.555 82.0067V80.9957C113.555 80.7167 113.781 80.4917 114.059 80.4917C114.337 80.4917 114.563 80.7167 114.563 80.9957V82.0067C114.563 82.2847 114.337 82.5107 114.059 82.5107ZM55.2188 79.6787C54.9398 79.6787 54.7148 79.4537 54.7148 79.1747V78.1637C54.7148 77.8847 54.9398 77.6597 55.2188 77.6597C55.4978 77.6597 55.7228 77.8847 55.7228 78.1637V79.1747C55.7228 79.4527 55.4978 79.6787 55.2188 79.6787ZM114.059 78.4667C113.78 78.4667 113.555 78.2407 113.555 77.9627V76.9517C113.555 76.6727 113.781 76.4477 114.059 76.4477C114.337 76.4477 114.563 76.6737 114.563 76.9517V77.9627C114.563 78.2407 114.337 78.4667 114.059 78.4667ZM55.2188 75.6347C54.9398 75.6347 54.7148 75.4087 54.7148 75.1307V74.1197C54.7148 73.8407 54.9398 73.6157 55.2188 73.6157C55.4978 73.6157 55.7228 73.8407 55.7228 74.1197V75.1307C55.7228 75.4087 55.4978 75.6347 55.2188 75.6347ZM114.059 74.4217C113.78 74.4217 113.555 74.1967 113.555 73.9177V72.9067C113.555 72.6277 113.781 72.4027 114.059 72.4027C114.337 72.4027 114.563 72.6287 114.563 72.9067V73.9177C114.563 74.1967 114.337 74.4217 114.059 74.4217ZM114.059 70.3777C113.78 70.3777 113.555 70.1517 113.555 69.8737V68.8627C113.555 68.5837 113.781 68.3587 114.059 68.3587C114.337 68.3587 114.563 68.5837 114.563 68.8627V69.8737C114.563 70.1527 114.337 70.3777 114.059 70.3777ZM114.059 66.3337C113.78 66.3337 113.555 66.1077 113.555 65.8297V64.8187C113.555 64.5397 113.781 64.3147 114.059 64.3147C114.337 64.3147 114.563 64.5407 114.563 64.8187V65.8297C114.563 66.1087 114.337 66.3337 114.059 66.3337ZM114.059 62.2897C113.78 62.2897 113.555 62.0647 113.555 61.7857V60.7747C113.555 60.4957 113.781 60.2707 114.059 60.2707C114.337 60.2707 114.563 60.4957 114.563 60.7747V61.7857C114.563 62.0647 114.337 62.2897 114.059 62.2897ZM114.059 58.2457C113.78 58.2457 113.555 58.0197 113.555 57.7417V56.7307C113.555 56.4517 113.781 56.2267 114.059 56.2267C114.337 56.2267 114.563 56.4517 114.563 56.7307V57.7417C114.563 58.0207 114.337 58.2457 114.059 58.2457ZM114.059 54.2017C113.78 54.2017 113.555 53.9767 113.555 53.6977V52.6867C113.555 52.4077 113.781 52.1827 114.059 52.1827C114.337 52.1827 114.563 52.4087 114.563 52.6867V53.6977C114.563 53.9767 114.337 54.2017 114.059 54.2017ZM114.059 50.1577C113.78 50.1577 113.555 49.9327 113.555 49.6537V48.6427C113.555 48.3637 113.781 48.1387 114.059 48.1387C114.337 48.1387 114.563 48.3647 114.563 48.6427V49.6537C114.563 49.9327 114.337 50.1577 114.059 50.1577ZM114.059 46.1137C113.78 46.1137 113.555 45.8887 113.555 45.6097V44.5987C113.555 44.3197 113.781 44.0947 114.059 44.0947C114.337 44.0947 114.563 44.3197 114.563 44.5987V45.6097C114.563 45.8887 114.337 46.1137 114.059 46.1137ZM114.059 42.0697C113.78 42.0697 113.555 41.8447 113.555 41.5657V40.5547C113.555 40.2757 113.781 40.0507 114.059 40.0507C114.337 40.0507 114.563 40.2767 114.563 40.5547V41.5657C114.563 41.8447 114.337 42.0697 114.059 42.0697ZM114.059 38.0257C113.78 38.0257 113.555 37.8007 113.555 37.5217V36.5107C113.555 36.2317 113.781 36.0067 114.059 36.0067C114.337 36.0067 114.563 36.2317 114.563 36.5107V37.5217C114.563 37.8007 114.337 38.0257 114.059 38.0257ZM114.059 33.9817C113.78 33.9817 113.555 33.7557 113.555 33.4777V32.4667C113.555 32.1877 113.781 31.9627 114.059 31.9627C114.337 31.9627 114.563 32.1877 114.563 32.4667V33.4777C114.563 33.7567 114.337 33.9817 114.059 33.9817ZM114.059 29.9377C113.78 29.9377 113.555 29.7127 113.555 29.4337V29.2187C113.555 28.9677 113.543 28.7187 113.519 28.4737C113.492 28.1967 113.694 27.9497 113.971 27.9227C114.253 27.8967 114.494 28.0977 114.522 28.3747C114.549 28.6527 114.563 28.9337 114.563 29.2177V29.4327C114.563 29.7127 114.337 29.9377 114.059 29.9377ZM113.176 26.0347C112.993 26.0347 112.816 25.9347 112.727 25.7597C112.583 25.4767 112.421 25.2047 112.245 24.9447C112.089 24.7147 112.149 24.4017 112.379 24.2447C112.609 24.0877 112.923 24.1477 113.079 24.3787C113.279 24.6737 113.461 24.9817 113.625 25.3017C113.752 25.5497 113.654 25.8527 113.405 25.9797C113.331 26.0177 113.253 26.0347 113.176 26.0347ZM110.534 23.0287C110.436 23.0287 110.336 22.9997 110.249 22.9397C109.99 22.7617 109.718 22.5987 109.437 22.4527C109.19 22.3247 109.093 22.0207 109.221 21.7737C109.349 21.5267 109.651 21.4297 109.9 21.5577C110.219 21.7227 110.527 21.9067 110.821 22.1097C111.05 22.2667 111.108 22.5817 110.95 22.8107C110.852 22.9527 110.695 23.0287 110.534 23.0287ZM61.3078 21.8597C61.0828 21.8597 60.8788 21.7087 60.8198 21.4807C60.7508 21.2107 60.9128 20.9367 61.1828 20.8667C61.5268 20.7787 61.8788 20.7107 62.2368 20.6647C62.5138 20.6367 62.7658 20.8257 62.8008 21.1017C62.8358 21.3777 62.6408 21.6307 62.3638 21.6657C62.0478 21.7057 61.7368 21.7657 61.4338 21.8437C61.3918 21.8547 61.3488 21.8597 61.3078 21.8597ZM106.78 21.6467C106.763 21.6467 106.745 21.6457 106.728 21.6437C106.469 21.6167 106.206 21.6037 105.94 21.6037H105.77C105.491 21.6037 105.266 21.3787 105.266 21.0997C105.266 20.8207 105.491 20.5957 105.77 20.5957H105.94C106.241 20.5957 106.539 20.6107 106.831 20.6407C107.108 20.6697 107.31 20.9177 107.281 21.1937C107.254 21.4537 107.035 21.6467 106.78 21.6467ZM102.737 21.6037H101.726C101.447 21.6037 101.222 21.3787 101.222 21.0997C101.222 20.8207 101.447 20.5957 101.726 20.5957H102.737C103.016 20.5957 103.241 20.8207 103.241 21.0997C103.241 21.3787 103.015 21.6037 102.737 21.6037ZM98.6928 21.6037H97.6818C97.4028 21.6037 97.1778 21.3787 97.1778 21.0997C97.1778 20.8207 97.4028 20.5957 97.6818 20.5957H98.6928C98.9718 20.5957 99.1968 20.8207 99.1968 21.0997C99.1968 21.3787 98.9708 21.6037 98.6928 21.6037ZM94.6488 21.6037H93.6378C93.3588 21.6037 93.1338 21.3787 93.1338 21.0997C93.1338 20.8207 93.3598 20.5957 93.6378 20.5957H94.6488C94.9278 20.5957 95.1528 20.8207 95.1528 21.0997C95.1528 21.3787 94.9278 21.6037 94.6488 21.6037ZM90.6048 21.6037H89.5938C89.3148 21.6037 89.0898 21.3787 89.0898 21.0997C89.0898 20.8207 89.3148 20.5957 89.5938 20.5957H90.6048C90.8838 20.5957 91.1088 20.8207 91.1088 21.0997C91.1088 21.3787 90.8828 21.6037 90.6048 21.6037ZM86.5608 21.6037H85.5498C85.2708 21.6037 85.0458 21.3787 85.0458 21.0997C85.0458 20.8207 85.2708 20.5957 85.5498 20.5957H86.5608C86.8398 20.5957 87.0648 20.8207 87.0648 21.0997C87.0648 21.3787 86.8388 21.6037 86.5608 21.6037ZM82.5168 21.6037H81.5058C81.2268 21.6037 81.0018 21.3787 81.0018 21.0997C81.0018 20.8207 81.2268 20.5957 81.5058 20.5957H82.5168C82.7958 20.5957 83.0208 20.8207 83.0208 21.0997C83.0208 21.3787 82.7948 21.6037 82.5168 21.6037ZM78.4728 21.6037H77.4618C77.1828 21.6037 76.9578 21.3787 76.9578 21.0997C76.9578 20.8207 77.1828 20.5957 77.4618 20.5957H78.4728C78.7518 20.5957 78.9768 20.8207 78.9768 21.0997C78.9768 21.3787 78.7508 21.6037 78.4728 21.6037ZM74.4288 21.6037H73.4178C73.1388 21.6037 72.9138 21.3787 72.9138 21.0997C72.9138 20.8207 73.1398 20.5957 73.4178 20.5957H74.4288C74.7078 20.5957 74.9328 20.8207 74.9328 21.0997C74.9328 21.3787 74.7068 21.6037 74.4288 21.6037ZM70.3848 21.6037H69.3738C69.0948 21.6037 68.8698 21.3787 68.8698 21.0997C68.8698 20.8207 69.0948 20.5957 69.3738 20.5957H70.3848C70.6638 20.5957 70.8888 20.8207 70.8888 21.0997C70.8888 21.3787 70.6628 21.6037 70.3848 21.6037ZM66.3408 21.6037H65.3298C65.0508 21.6037 64.8258 21.3787 64.8258 21.0997C64.8258 20.8207 65.0508 20.5957 65.3298 20.5957H66.3408C66.6198 20.5957 66.8448 20.8207 66.8448 21.0997C66.8448 21.3787 66.6188 21.6037 66.3408 21.6037Z" fill="#44240A"/>
<path d="M46.8353 30.7244L71.4369 56.9774L71.8179 61.5928L47.2164 35.3822L46.8353 30.7244ZM46.92 57.9936V61H43.4055V60.5766C43.4055 60.5766 43.5325 60.5766 43.7865 60.5766C44.0406 60.5766 44.1818 60.5766 44.21 60.5766C44.9157 60.5766 45.5226 60.3225 46.0308 59.8144C46.5389 59.3063 46.7929 58.6993 46.7929 57.9936H46.92ZM48.7407 57.9936C48.7407 58.6993 48.9948 59.3063 49.5029 59.8144C50.011 60.3225 50.618 60.5766 51.3237 60.5766C51.3519 60.5766 51.4931 60.5766 51.7471 60.5766C52.0012 60.5766 52.1282 60.5766 52.1282 60.5766V61H48.6137V57.9936H48.7407ZM46.8353 30.7244L48.6984 33.0956L48.7407 61H46.7929V36.0173C46.7929 34.5777 46.7224 33.3356 46.5812 32.2911C46.4683 31.2466 46.4118 30.7244 46.4118 30.7244H46.8353ZM71.8179 31.3595V56.1728C71.8179 57.0762 71.8462 57.9513 71.9026 58.7981C71.9591 59.6168 72.0155 60.2943 72.072 60.8306C72.1567 61.3387 72.199 61.5928 72.199 61.5928H71.8179L69.9125 59.3486V31.3595H71.8179ZM75.2054 31.3595V31.783C75.2054 31.783 75.0784 31.783 74.8243 31.783C74.5703 31.783 74.4432 31.783 74.4432 31.783C73.7375 31.783 73.1306 32.037 72.6225 32.5452C72.1143 33.0251 71.8462 33.632 71.8179 34.3659H71.6909V31.3595H75.2054ZM66.4827 31.3595H69.9972V34.3659H69.9125C69.8843 33.632 69.6161 33.0251 69.108 32.5452C68.6281 32.037 68.0211 31.783 67.2872 31.783C67.2872 31.783 67.1602 31.783 66.9061 31.783C66.652 31.783 66.5109 31.783 66.4827 31.783V31.3595Z" fill="#44240A"/>
<path d="M115.053 94.967V124.607H112.301V94.967H115.053ZM112.428 121.516V124.607H109.041V124.184C109.041 124.184 109.125 124.184 109.295 124.184C109.492 124.184 109.591 124.184 109.591 124.184C110.325 124.184 110.946 123.93 111.454 123.422C111.991 122.885 112.273 122.25 112.301 121.516H112.428ZM112.428 98.058H112.301C112.273 97.3241 111.991 96.7031 111.454 96.1949C110.946 95.6586 110.325 95.3904 109.591 95.3904C109.591 95.3904 109.492 95.3904 109.295 95.3904C109.125 95.3904 109.041 95.3904 109.041 95.3904V94.967H112.428V98.058ZM114.926 121.516H115.053C115.082 122.25 115.35 122.885 115.858 123.422C116.394 123.93 117.029 124.184 117.763 124.184C117.763 124.184 117.848 124.184 118.017 124.184C118.187 124.184 118.286 124.184 118.314 124.184V124.607H114.926V121.516ZM114.926 98.058V94.967H118.314V95.3904C118.286 95.3904 118.187 95.3904 118.017 95.3904C117.848 95.3904 117.763 95.3904 117.763 95.3904C117.029 95.3904 116.394 95.6586 115.858 96.1949C115.35 96.7031 115.082 97.3241 115.053 98.058H114.926Z" fill="#44240A"/>
<path d="M64.2622 136.675L67.7767 140.425L67.8312 141.085L64.3166 137.34L64.2622 136.675ZM64.2743 140.571V141H63.7722V140.94C63.7722 140.94 63.7904 140.94 63.8267 140.94C63.8629 140.94 63.8831 140.94 63.8871 140.94C63.988 140.94 64.0747 140.903 64.1473 140.831C64.2198 140.758 64.2561 140.671 64.2561 140.571H64.2743ZM64.5344 140.571C64.5344 140.671 64.5707 140.758 64.6433 140.831C64.7159 140.903 64.8026 140.94 64.9034 140.94C64.9074 140.94 64.9276 140.94 64.9639 140.94C65.0002 140.94 65.0183 140.94 65.0183 140.94V141H64.5162V140.571H64.5344ZM64.2622 136.675L64.5283 137.014L64.5344 141H64.2561V137.431C64.2561 137.225 64.2461 137.048 64.2259 136.899C64.2098 136.749 64.2017 136.675 64.2017 136.675H64.2622ZM67.8312 136.766V140.31C67.8312 140.439 67.8352 140.564 67.8433 140.685C67.8513 140.802 67.8594 140.899 67.8675 140.976C67.8795 141.048 67.8856 141.085 67.8856 141.085H67.8312L67.5589 140.764V136.766H67.8312ZM68.3151 136.766V136.826C68.3151 136.826 68.2969 136.826 68.2606 136.826C68.2243 136.826 68.2062 136.826 68.2062 136.826C68.1054 136.826 68.0187 136.862 67.9461 136.935C67.8735 137.004 67.8352 137.09 67.8312 137.195H67.813V136.766H68.3151ZM67.069 136.766H67.571V137.195H67.5589C67.5549 137.09 67.5166 137.004 67.444 136.935C67.3755 136.862 67.2888 136.826 67.1839 136.826C67.1839 136.826 67.1658 136.826 67.1295 136.826C67.0932 136.826 67.073 136.826 67.069 136.826V136.766ZM70.7736 137.286C71.0559 137.286 71.3201 137.332 71.566 137.425C71.8161 137.514 72.0338 137.643 72.2194 137.812C72.4089 137.981 72.5561 138.183 72.6609 138.417C72.7658 138.647 72.8182 138.903 72.8182 139.185C72.8182 139.468 72.7658 139.726 72.6609 139.96C72.5561 140.189 72.4089 140.389 72.2194 140.558C72.0338 140.728 71.8161 140.859 71.566 140.952C71.3201 141.04 71.0559 141.085 70.7736 141.085C70.4913 141.085 70.2272 141.04 69.9812 140.952C69.7352 140.859 69.5174 140.728 69.3279 140.558C69.1424 140.389 68.9972 140.189 68.8923 139.96C68.7875 139.726 68.7351 139.468 68.7351 139.185C68.7351 138.903 68.7875 138.647 68.8923 138.417C68.9972 138.183 69.1424 137.981 69.3279 137.812C69.5174 137.643 69.7352 137.514 69.9812 137.425C70.2272 137.332 70.4913 137.286 70.7736 137.286ZM70.7736 140.903C71.072 140.903 71.3422 140.831 71.5842 140.685C71.8262 140.54 72.0177 140.339 72.1589 140.081C72.3 139.822 72.3706 139.524 72.3706 139.185C72.3706 138.842 72.3 138.544 72.1589 138.29C72.0177 138.032 71.8262 137.83 71.5842 137.685C71.3422 137.54 71.072 137.467 70.7736 137.467C70.4792 137.467 70.2111 137.54 69.9691 137.685C69.7271 137.83 69.5356 138.032 69.3944 138.29C69.2533 138.544 69.1827 138.842 69.1827 139.185C69.1827 139.524 69.2533 139.822 69.3944 140.081C69.5356 140.339 69.7271 140.54 69.9691 140.685C70.2111 140.831 70.4792 140.903 70.7736 140.903ZM74.977 141.085L73.3135 137.407H73.7914L75.0799 140.546L74.977 141.085ZM74.977 141.085L74.9347 140.667L76.3199 137.389H76.701L75.2674 140.462C75.2674 140.462 75.2553 140.486 75.2311 140.534C75.2109 140.583 75.1847 140.643 75.1525 140.716C75.1242 140.784 75.098 140.853 75.0738 140.921C75.0496 140.99 75.0355 141.044 75.0315 141.085H74.977ZM76.1445 137.812C76.1889 137.691 76.1828 137.598 76.1264 137.534C76.0699 137.465 76.0054 137.431 75.9328 137.431H75.8904V137.371H77.0398V137.431C77.0398 137.431 77.0317 137.431 77.0156 137.431C76.9994 137.431 76.9914 137.431 76.9914 137.431C76.9067 137.431 76.82 137.461 76.7313 137.522C76.6426 137.578 76.5659 137.675 76.5014 137.812H76.1445ZM73.9547 137.812H73.495C73.4345 137.675 73.3599 137.578 73.2712 137.522C73.1825 137.461 73.0978 137.431 73.0171 137.431C73.0171 137.431 73.0091 137.431 72.9929 137.431C72.9768 137.431 72.9687 137.431 72.9687 137.431V137.371H74.2088V137.431H74.1604C74.0918 137.431 74.0293 137.465 73.9729 137.534C73.9205 137.598 73.9144 137.691 73.9547 137.812ZM78.2199 137.371V141H77.8388V137.371H78.2199ZM77.8569 140.613V141H77.3428V140.94C77.3428 140.94 77.3569 140.94 77.3851 140.94C77.4133 140.94 77.4274 140.94 77.4274 140.94C77.5404 140.94 77.6351 140.907 77.7117 140.843C77.7924 140.778 77.8347 140.702 77.8388 140.613H77.8569ZM78.2017 140.613H78.2199C78.2239 140.702 78.2642 140.778 78.3409 140.843C78.4215 140.907 78.5183 140.94 78.6312 140.94C78.6312 140.94 78.6433 140.94 78.6675 140.94C78.6957 140.94 78.7098 140.94 78.7098 140.94L78.7159 141H78.2017V140.613ZM78.2017 137.758V137.371H78.7159L78.7098 137.431C78.7098 137.431 78.6957 137.431 78.6675 137.431C78.6433 137.431 78.6312 137.431 78.6312 137.431C78.5183 137.431 78.4215 137.463 78.3409 137.528C78.2642 137.588 78.2239 137.665 78.2199 137.758H78.2017ZM77.8569 137.758H77.8388C77.8347 137.665 77.7924 137.588 77.7117 137.528C77.6351 137.463 77.5404 137.431 77.4274 137.431C77.4234 137.431 77.4073 137.431 77.379 137.431C77.3548 137.431 77.3428 137.431 77.3428 137.431V137.371H77.8569V137.758ZM81.0747 137.286L82.7382 140.964H82.2603L80.9718 137.824L81.0747 137.286ZM79.9072 140.558C79.8628 140.679 79.8689 140.774 79.9253 140.843C79.9818 140.907 80.0463 140.94 80.1189 140.94H80.1673V141H79.0119V140.94C79.0119 140.94 79.02 140.94 79.0361 140.94C79.0523 140.94 79.0603 140.94 79.0603 140.94C79.145 140.94 79.2317 140.911 79.3204 140.855C79.4091 140.794 79.4858 140.696 79.5503 140.558H79.9072ZM81.0747 137.286L81.117 137.703L79.7318 140.982H79.3507L80.7843 137.909C80.7843 137.909 80.7944 137.885 80.8146 137.836C80.8388 137.788 80.865 137.729 80.8932 137.661C80.9255 137.588 80.9537 137.518 80.9779 137.449C81.0021 137.381 81.0162 137.326 81.0202 137.286H81.0747ZM81.7885 139.591V139.772H80.1854V139.591H81.7885ZM82.097 140.558H82.5567C82.6172 140.696 82.6918 140.794 82.7805 140.855C82.8692 140.911 82.9539 140.94 83.0346 140.94C83.0346 140.94 83.0426 140.94 83.0588 140.94C83.0749 140.94 83.083 140.94 83.083 140.94V141H81.8429V140.94H81.8913C81.9599 140.94 82.0224 140.907 82.0788 140.843C82.1353 140.774 82.1413 140.679 82.097 140.558ZM86.4649 136.681C86.602 136.681 86.7351 136.699 86.8642 136.735C86.9932 136.772 87.1122 136.822 87.2211 136.887C87.33 136.947 87.4207 137.022 87.4933 137.11L87.3844 137.794H87.3239C87.3239 137.6 87.2876 137.435 87.215 137.298C87.1424 137.157 87.0416 137.05 86.9126 136.977C86.7876 136.901 86.6383 136.862 86.4649 136.862C86.2351 136.862 86.0435 136.943 85.8903 137.104C85.7411 137.266 85.6665 137.469 85.6665 137.715C85.6665 137.969 85.7491 138.205 85.9145 138.423C86.0798 138.641 86.3177 138.889 86.6283 139.167C86.717 139.244 86.8138 139.332 86.9186 139.433C87.0275 139.53 87.1505 139.639 87.2876 139.76C87.4288 139.881 87.586 140.014 87.7594 140.159C87.8885 140.264 88.0196 140.375 88.1526 140.492C88.2897 140.609 88.4289 140.71 88.57 140.794C88.7152 140.879 88.8644 140.927 89.0177 140.94V141C88.941 141 88.8301 140.998 88.685 140.994C88.5438 140.99 88.3865 140.962 88.2131 140.909C88.0397 140.857 87.8663 140.76 87.6929 140.619C87.5397 140.494 87.3985 140.379 87.2695 140.274C87.1445 140.165 87.0275 140.066 86.9186 139.978C86.8138 139.885 86.715 139.798 86.6222 139.718C86.5295 139.633 86.4387 139.55 86.35 139.47C86.1161 139.252 85.9165 139.056 85.7511 138.883C85.5898 138.705 85.4648 138.526 85.3761 138.344C85.2914 138.159 85.2491 137.949 85.2491 137.715C85.2491 137.566 85.2773 137.429 85.3338 137.304C85.3902 137.179 85.4709 137.07 85.5757 136.977C85.6846 136.885 85.8136 136.812 85.9629 136.76C86.1121 136.707 86.2794 136.681 86.4649 136.681ZM88.1345 139.01C88.1788 139.232 88.1909 139.443 88.1708 139.645C88.1506 139.847 88.1002 140.034 88.0196 140.208C87.9429 140.377 87.8361 140.526 87.699 140.655C87.5659 140.784 87.4066 140.885 87.2211 140.958C87.0356 141.026 86.8279 141.06 86.598 141.06C86.3641 141.06 86.1484 141.04 85.9508 141C85.7572 140.96 85.5858 140.901 85.4366 140.825C85.2874 140.744 85.1603 140.647 85.0555 140.534C84.9547 140.417 84.8781 140.286 84.8256 140.141C84.7732 139.992 84.747 139.826 84.747 139.645C84.747 139.528 84.7591 139.421 84.7833 139.324C84.8115 139.224 84.8498 139.131 84.8982 139.046C84.9466 138.961 85.0031 138.887 85.0676 138.822C85.1361 138.754 85.2108 138.691 85.2914 138.635C85.3721 138.578 85.4588 138.53 85.5515 138.49L85.6362 138.623C85.5556 138.687 85.487 138.76 85.4305 138.84C85.3741 138.917 85.3277 139 85.2914 139.088C85.2551 139.173 85.2289 139.264 85.2128 139.361C85.1966 139.453 85.1886 139.548 85.1886 139.645C85.1886 139.826 85.2188 139.994 85.2793 140.147C85.3438 140.296 85.4346 140.425 85.5515 140.534C85.6725 140.643 85.8197 140.728 85.9931 140.788C86.1705 140.849 86.3722 140.879 86.598 140.879C86.8037 140.879 86.9852 140.839 87.1424 140.758C87.3037 140.673 87.4368 140.564 87.5417 140.431C87.6506 140.294 87.7312 140.143 87.7836 139.978C87.8361 139.812 87.8582 139.647 87.8502 139.482C87.8421 139.312 87.8018 139.155 87.7292 139.01C87.6889 138.929 87.6364 138.863 87.5719 138.81C87.5114 138.758 87.4328 138.732 87.336 138.732H87.2453V138.671H88.449V138.732H88.3583C88.2696 138.732 88.2051 138.758 88.1647 138.81C88.1284 138.863 88.1184 138.929 88.1345 139.01ZM91.2104 136.766V141H90.8172V136.766H91.2104ZM90.8353 140.558V141H90.3514V140.94C90.3514 140.94 90.3635 140.94 90.3877 140.94C90.4159 140.94 90.43 140.94 90.43 140.94C90.5349 140.94 90.6236 140.903 90.6962 140.831C90.7728 140.754 90.8131 140.663 90.8172 140.558H90.8353ZM90.8353 137.207H90.8172C90.8131 137.102 90.7728 137.014 90.6962 136.941C90.6236 136.864 90.5349 136.826 90.43 136.826C90.43 136.826 90.4159 136.826 90.3877 136.826C90.3635 136.826 90.3514 136.826 90.3514 136.826V136.766H90.8353V137.207ZM91.1922 140.558H91.2104C91.2144 140.663 91.2527 140.754 91.3253 140.831C91.4019 140.903 91.4927 140.94 91.5975 140.94C91.5975 140.94 91.6096 140.94 91.6338 140.94C91.658 140.94 91.6721 140.94 91.6761 140.94V141H91.1922V140.558ZM91.1922 137.207V136.766H91.6761V136.826C91.6721 136.826 91.658 136.826 91.6338 136.826C91.6096 136.826 91.5975 136.826 91.5975 136.826C91.4927 136.826 91.4019 136.864 91.3253 136.941C91.2527 137.014 91.2144 137.102 91.2104 137.207H91.1922ZM94.0104 141.085L92.3469 137.407H92.8248L94.1133 140.546L94.0104 141.085ZM94.0104 141.085L93.9681 140.667L95.3533 137.389H95.7344L94.3008 140.462C94.3008 140.462 94.2887 140.486 94.2645 140.534C94.2443 140.583 94.2181 140.643 94.1859 140.716C94.1576 140.784 94.1314 140.853 94.1072 140.921C94.083 140.99 94.0689 141.044 94.0649 141.085H94.0104ZM95.1779 137.812C95.2223 137.691 95.2162 137.598 95.1598 137.534C95.1033 137.465 95.0388 137.431 94.9662 137.431H94.9238V137.371H96.0732V137.431C96.0732 137.431 96.0651 137.431 96.049 137.431C96.0328 137.431 96.0248 137.431 96.0248 137.431C95.9401 137.431 95.8534 137.461 95.7647 137.522C95.676 137.578 95.5993 137.675 95.5348 137.812H95.1779ZM92.9881 137.812H92.5284C92.4679 137.675 92.3933 137.578 92.3046 137.522C92.2159 137.461 92.1312 137.431 92.0505 137.431C92.0505 137.431 92.0425 137.431 92.0263 137.431C92.0102 137.431 92.0021 137.431 92.0021 137.431V137.371H93.2422V137.431H93.1938C93.1252 137.431 93.0627 137.465 93.0063 137.534C92.9539 137.598 92.9478 137.691 92.9881 137.812ZM97.562 137.286L99.2255 140.964H98.7476L97.4592 137.824L97.562 137.286ZM96.3945 140.558C96.3502 140.679 96.3562 140.774 96.4127 140.843C96.4691 140.907 96.5337 140.94 96.6063 140.94H96.6546V141H95.4993V140.94C95.4993 140.94 95.5073 140.94 95.5235 140.94C95.5396 140.94 95.5477 140.94 95.5477 140.94C95.6323 140.94 95.719 140.911 95.8078 140.855C95.8965 140.794 95.9731 140.696 96.0376 140.558H96.3945ZM97.562 137.286L97.6044 137.703L96.2191 140.982H95.838L97.2717 137.909C97.2717 137.909 97.2817 137.885 97.3019 137.836C97.3261 137.788 97.3523 137.729 97.3805 137.661C97.4128 137.588 97.441 137.518 97.4652 137.449C97.4894 137.381 97.5035 137.326 97.5076 137.286H97.562ZM98.2758 139.591V139.772H96.6728V139.591H98.2758ZM98.5843 140.558H99.044C99.1045 140.696 99.1791 140.794 99.2679 140.855C99.3566 140.911 99.4413 140.94 99.5219 140.94C99.5219 140.94 99.53 140.94 99.5461 140.94C99.5622 140.94 99.5703 140.94 99.5703 140.94V141H98.3302V140.94H98.3786C98.4472 140.94 98.5097 140.907 98.5662 140.843C98.6226 140.774 98.6287 140.679 98.5843 140.558ZM100.194 137.28L103.545 140.437L103.606 141.085L100.254 137.909L100.194 137.28ZM100.206 140.625V141H99.7523V140.94C99.7523 140.94 99.7684 140.94 99.8007 140.94C99.837 140.94 99.8551 140.94 99.8551 140.94C99.9479 140.94 100.027 140.909 100.091 140.849C100.156 140.788 100.188 140.714 100.188 140.625H100.206ZM100.46 140.625C100.46 140.714 100.492 140.788 100.557 140.849C100.625 140.909 100.704 140.94 100.793 140.94C100.793 140.94 100.809 140.94 100.841 140.94C100.877 140.94 100.896 140.94 100.896 140.94V141H100.442V140.625H100.46ZM100.194 137.28L100.454 137.619L100.46 141H100.188V138.036C100.188 137.83 100.178 137.653 100.158 137.504C100.141 137.354 100.133 137.28 100.133 137.28H100.194ZM103.606 137.371V140.31C103.606 140.439 103.61 140.564 103.618 140.685C103.626 140.802 103.634 140.899 103.642 140.976C103.654 141.048 103.66 141.085 103.66 141.085H103.606L103.339 140.764V137.371H103.606ZM103.587 137.746V137.371H104.041V137.431C104.041 137.431 104.023 137.431 103.987 137.431C103.954 137.431 103.938 137.431 103.938 137.431C103.85 137.431 103.771 137.461 103.702 137.522C103.638 137.582 103.606 137.657 103.606 137.746H103.587ZM103.339 137.746C103.335 137.657 103.301 137.582 103.237 137.522C103.172 137.461 103.093 137.431 103.001 137.431C103.001 137.431 102.983 137.431 102.946 137.431C102.914 137.431 102.898 137.431 102.898 137.431V137.371H103.352V137.746H103.339Z" fill="#44240A"/>
</svg>
